:SAMPLES-PER-SECOND 30
:FULLY-SPECIFIED
:DEGREES
1504
root  0.382494 39.2681 19.275 178.713 -35.9406 178.619
RightUpLeg  12.0808 -7.94417 0.640673
RightLeg  5.32138 3.25062 1.81448
RightFoot  -16.3557 -0.131466 -0.473939
RightToes  1.33877e-009 0 -3.6325e-017
Spine  6.10109 -0.55136 5.59715
Spine1  9.85119 0.916791 -4.51025
HEad  -29.6467 9.31691 -3.77216
LeftShoulder1  0.199053 2.97189 -31.3667
LeftArm  -4.6404 14.8496 -40.0102
LeftForeArm  28.6285 -1.67113 -8.17386
LeftHand  -0.0846678 9.72706 -0.781856
RightShoulder  -0.636742 -5.31655 28.409
RightArm  7.23478 -6.07691 41.6386
RightForeArm  6.03366 2.74723 4.66363
RightHand  -0.208419 0.626308 -4.0905
LeftUpLeg  -11.8899 1.18384 -4.91886
LeftLeg  -2.42244 13.8147 -2.6186
LeftFoot  4.62917 0.187098 -1.77485
LeftToes  -1.45701e-009 4.75788e-011 -4.21586e-011
1505
root  0.0344373 39.2303 18.4762 178.289 -35.6382 177.871
RightUpLeg  14.7512 -8.07241 -0.180257
RightLeg  4.73606 3.83585 1.81678
RightFoot  -16.694 -0.142453 -0.635914
RightToes  1.33877e-009 0 -3.6325e-017
Spine  5.92321 -0.424458 3.75065
Spine1  10.4654 1.16787 -4.82456
HEad  -29.4694 8.97069 -4.0099
LeftShoulder1  0.0139491 3.46724 -31.9106
LeftArm  -3.5556 17.11 -38.0734
LeftForeArm  31.5369 -3.42015 -8.75107
LeftHand  -0.143224 10.083 -2.06957
RightShoulder  -0.663201 -5.38047 28.63
RightArm  6.47053 -5.85926 44.2421
RightForeArm  5.57316 2.95591 4.5448
RightHand  -0.262506 1.23977 -4.74857
LeftUpLeg  -11.409 1.38609 -5.83551
LeftLeg  -0.0293888 13.9188 -2.04974
LeftFoot  8.12755 -1.25979 7.16363
LeftToes  -1.45701e-009 4.75788e-011 -4.21586e-011
1506
root  -0.32088 39.2024 17.7016 178.346 -35.8462 176.562
RightUpLeg  16.5628 -8.67002 -1.60418
RightLeg  5.52558 4.46792 1.90955
RightFoot  -16.9828 -0.131682 -0.346969
RightToes  1.33877e-009 0 -3.6325e-017
Spine  5.86659 -0.266317 1.50716
Spine1  10.6035 1.24967 -4.82323
HEad  -29.5025 8.95581 -4.56882
LeftShoulder1  -0.0915543 3.74097 -32.5164
LeftArm  -2.51181 17.8331 -36.2421
LeftForeArm  32.5596 -4.04135 -9.22278
LeftHand  -0.189778 9.96665 -3.24154
RightShoulder  -0.723237 -5.51049 29.3718
RightArm  7.0254 -5.48417 46.045
RightForeArm  5.7021 4.42527 4.89991
RightHand  -0.237989 1.77023 -4.01445
LeftUpLeg  -10.9979 1.10777 -6.88589
LeftLeg  3.01752 13.8938 -1.33436
LeftFoot  8.5803 -1.851 10.2246
LeftToes  -1.45701e-009 4.75788e-011 -4.21586e-011
1507
root  -0.662833 39.267 16.9489 178.482 -36.0831 175.14
RightUpLeg  17.43 -9.81099 -3.41227
RightLeg  8.07553 5.47549 2.22504
RightFoot  -16.5961 -0.0956505 0.387056
RightToes  1.33877e-009 0 -3.6325e-017
Spine  5.97369 0.140088 -0.200914
Spine1  10.5919 1.70956 -5.19025
HEad  -29.5056 8.10118 -5.41765
LeftShoulder1  -0.091334 3.73693 -32.957
LeftArm  -1.9553 17.2126 -35.1102
LeftForeArm  30.688 -3.80499 -9.48054
LeftHand  -0.122677 9.75229 -1.77403
RightShoulder  -0.752011 -5.58437 29.4925
RightArm  7.96221 -5.16389 48.5113
RightForeArm  6.70115 6.02197 5.4096
RightHand  -0.222047 1.45258 -3.89526
LeftUpLeg  -9.11567 1.72928 -7.40471
LeftLeg  3.64825 13.173 -1.98661
LeftFoot  6.87266 -1.53728 9.30402
LeftToes  -1.45701e-009 4.75788e-011 -4.21586e-011
1508
root  -1.04001 39.3601 16.2679 178.257 -35.7073 174.835
RightUpLeg  17.5192 -11.5952 -4.8843
RightLeg  11.3832 8.35796 2.88695
RightFoot  -15.6282 -0.0130063 2.46137
RightToes  1.33877e-009 0 -3.6325e-017
Spine  6.15064 0.601469 0.437892
Spine1  9.95029 2.66374 -7.21289
HEad  -28.6458 7.17758 -6.38521
LeftShoulder1  0.00228967 3.49829 -32.395
LeftArm  -2.60002 16.602 -35.4543
LeftForeArm  29.5557 -3.4622 -9.1103
LeftHand  -0.12565 9.68275 -1.83946
RightShoulder  -0.709535 -5.48921 29.0483
RightArm  10.9996 -4.69196 50.9177
RightForeArm  7.18904 8.01147 6.62678
RightHand  -0.28299 2.09327 -4.58368
LeftUpLeg  -7.69939 2.41718 -7.3203
LeftLeg  4.39915 12.7873 -1.97408
LeftFoot  5.28291 -1.28728 8.57056
LeftToes  -1.45701e-009 4.75788e-011 -4.21586e-011
1509
root  -1.43012 39.4108 15.6786 178.081 -34.5593 174.939
RightUpLeg  16.006 -13.3978 -6.27301
RightLeg  16.937 12.1977 4.1207
RightFoot  -14.4207 0.0362967 5.02979
RightToes  1.33877e-009 0 -3.6325e-017
Spine  6.23372 1.15439 1.65756
Spine1  9.10573 3.70158 -9.48964
HEad  -27.5162 6.09828 -7.64133
LeftShoulder1  0.029175 3.42727 -32.2714
LeftArm  -2.47893 15.4681 -35.5781
LeftForeArm  28.0533 -3.76801 -9.19327
LeftHand  -0.0546241 9.14823 -0.141381
RightShoulder  -0.570911 -5.13916 28.1309
RightArm  16.3884 -3.18057 53.1561
RightForeArm  8.58044 10.2511 7.80947
RightHand  -0.265802 2.58465 -4.06134
LeftUpLeg  -7.05406 3.00612 -7.10067
LeftLeg  5.6751 13.4561 -1.48853
LeftFoot  3.83375 -1.1053 8.11591
LeftToes  -1.45701e-009 4.75788e-011 -4.21586e-011
1510
root  -1.78 39.429 15.1657 178.012 -33.6341 174.986
RightUpLeg  13.3307 -14.1184 -7.57152
RightLeg  24.0962 14.4549 6.75245
RightFoot  -12.3499 -0.00835104 8.47364
RightToes  1.33877e-009 0 -3.6325e-017
Spine  6.3284 1.34744 2.21134
Spine1  8.49915 4.12262 -11.0854
HEad  -27.7545 6.21121 -9.44203
LeftShoulder1  0.101223 3.23758 -31.8895
LeftArm  -2.89214 14.5241 -36.4763
LeftForeArm  27.3974 -4.97837 -9.06471
LeftHand  -0.0324408 8.62952 0.448387
RightShoulder  -0.488398 -4.94011 27.1681
RightArm  24.974 -0.186239 55.0911
RightForeArm  7.76083 13.2271 8.27362
RightHand  -0.301731 3.48537 -4.20004
LeftUpLeg  -6.43524 3.95713 -6.78226
LeftLeg  6.58977 13.3678 -1.57109
LeftFoot  2.68001 -1.02576 8.18472
LeftToes  -1.45701e-009 4.75788e-011 -4.21586e-011
1511
root  -2.0382 39.3258 14.7249 178.057 -32.92 174.493
RightUpLeg  10.234 -14.689 -9.464
RightLeg  32.1405 15.4765 10.0209
RightFoot  -11.0988 -0.111565 15.3654
RightToes  1.33877e-009 0 -3.6325e-017
Spine  6.86595 1.34483 0.926584
Spine1  8.23836 3.90615 -11.3491
HEad  -28.1927 5.92213 -10.7062
LeftShoulder1  0.0479097 3.37816 -32.0306
LeftArm  -1.76151 12.3458 -37.0089
LeftForeArm  25.8116 -6.14164 -9.60036
LeftHand  -0.018078 8.55423 1.14851
RightShoulder  -0.457372 -4.85281 27.0232
RightArm  33.9714 3.77533 56.2371
RightForeArm  6.43533 16.9853 7.15414
RightHand  -0.193797 3.77077 -2.71591
LeftUpLeg  -6.45003 4.65523 -6.90997
LeftLeg  8.89944 13.444 -1.3006
LeftFoot  0.811475 -0.842349 7.86115
LeftToes  -1.45701e-009 4.75788e-011 -4.21586e-011
1512
root  -2.22607 39.2185 14.33 178.02 -32.5762 173.809
RightUpLeg  7.00043 -15.2107 -11.3536
RightLeg  39.9987 14.826 12.7382
RightFoot  -8.68884 -0.575081 21.5581
RightToes  1.33877e-009 0 -3.6325e-017
Spine  7.64538 1.09508 -1.21947
Spine1  8.31202 3.22132 -10.8458
HEad  -29.9296 5.75752 -12.1104
LeftShoulder1  0.0964821 3.252 -32.093
LeftArm  -0.503383 9.41319 -37.7511
LeftForeArm  23.9481 -7.06567 -9.99989
LeftHand  0.0192633 6.95933 3.68931
RightShoulder  -0.384786 -4.63922 26.848
RightArm  39.9118 8.08671 57.5269
RightForeArm  2.87711 19.7719 5.95251
RightHand  -0.24698 3.76326 -3.38799
LeftUpLeg  -6.21371 5.06998 -7.31632
LeftLeg  10.8035 13.5279 -0.90796
LeftFoot  -0.565863 -0.738795 7.8502
LeftToes  -1.45701e-009 4.75788e-011 -4.21586e-011
1513
root  -2.37746 39.0986 13.971 177.877 -32.1816 173.239
RightUpLeg  3.73855 -15.6677 -12.9907
RightLeg  46.7629 13.4035 14.4991
RightFoot  -5.48729 -1.32088 25.0334
RightToes  1.33877e-009 0 -3.6325e-017
Spine  7.92368 1.09534 -2.70073
Spine1  9.4006 2.98551 -10.711
HEad  -32.5057 5.09277 -13.4612
LeftShoulder1  0.265424 2.81402 -32.4141
LeftArm  1.42785 4.33464 -38.2548
LeftForeArm  22.3738 -6.66881 -10.9544
LeftHand  0.0678442 7.41618 5.77123
RightShoulder  -0.30263 -4.41315 26.1018
RightArm  39.3451 12.3455 59.5743
RightForeArm  1.75965 20.2085 5.73817
RightHand  -0.310531 4.43728 -3.95184
LeftUpLeg  -6.05037 5.39111 -7.68258
LeftLeg  12.7862 13.7649 -0.299276
LeftFoot  -2.0608 -0.592001 7.43729
LeftToes  -1.45701e-009 4.75788e-011 -4.21586e-011
1514
root  -2.50657 39.0943 13.5957 177.247 -31.7795 173.371
RightUpLeg  0.805326 -15.6225 -13.4738
RightLeg  51.0842 10.6444 13.4845
RightFoot  -4.1684 -1.49228 22.9763
RightToes  1.33877e-009 0 -3.6325e-017
Spine  8.49546 1.04381 -2.85444
Spine1  9.89865 2.99669 -11.2471
HEad  -33.9618 4.21558 -14.1708
LeftShoulder1  0.42469 2.39505 -32.1931
LeftArm  1.4914 -1.84892 -39.0678
LeftForeArm  24.6246 -4.82885 -11.6143
LeftHand  0.0629755 7.77022 4.77827
RightShoulder  -0.28278 -4.35257 26.0426
RightArm  36.7305 16.321 61.3841
RightForeArm  0.664264 19.0699 6.27575
RightHand  -0.396657 4.70321 -4.84244
LeftUpLeg  -5.27329 5.98572 -7.28426
LeftLeg  13.8417 13.7501 -0.0268892
LeftFoot  -3.04945 -0.492265 7.03691
LeftToes  -1.45701e-009 4.75788e-011 -4.21586e-011
